<?xml version="1.0" encoding="UTF-8"?>
<svg xmlns="http://www.w3.org/2000/svg" width="471" height="153">
   <defs>
      <style type="text/css">
    @namespace "http://www.w3.org/2000/svg";
    .line                 {fill: none; stroke: #332900; stroke-width: 1;}
    .bold-line            {stroke: #141000; shape-rendering: crispEdges; stroke-width: 2;}
    .thin-line            {stroke: #1F1800; shape-rendering: crispEdges}
    .filled               {fill: #332900; stroke: none;}
    text.terminal         {font-family: Verdana, Sans-serif;
                            font-size: 12px;
                            fill: #141000;
                            font-weight: bold;
                          }
    text.nonterminal      {font-family: Verdana, Sans-serif;
                            font-size: 12px;
                            fill: #1A1400;
                            font-weight: normal;
                          }
    text.regexp           {font-family: Verdana, Sans-serif;
                            font-size: 12px;
                            fill: #1F1800;
                            font-weight: normal;
                          }
    rect, circle, polygon {fill: #332900; stroke: #332900;}
    rect.terminal         {fill: #FFDB4D; stroke: #332900; stroke-width: 1;}
    rect.nonterminal      {fill: #FFEC9E; stroke: #332900; stroke-width: 1;}
    rect.text             {fill: none; stroke: none;}
    polygon.regexp        {fill: #FFF4C7; stroke: #332900; stroke-width: 1;}
  </style>
   </defs>
   <polygon points="9 51 1 47 1 55"/>
   <polygon points="17 51 9 47 9 55"/>
   <a xmlns:xlink="http://www.w3.org/1999/xlink"
       xlink:href="#CmdIdentifier"
       xlink:title="CmdIdentifier">
      <rect x="31" y="37" width="106" height="32"/>
      <rect x="29" y="35" width="106" height="32" class="nonterminal"/>
      <text class="nonterminal" x="39" y="55">CmdIdentifier</text>
   </a>
   <a xmlns:xlink="http://www.w3.org/1999/xlink"
       xlink:href="#Option"
       xlink:title="Option">
      <rect x="177" y="3" width="62" height="32"/>
      <rect x="175" y="1" width="62" height="32" class="nonterminal"/>
      <text class="nonterminal" x="185" y="21">Option</text>
   </a>
   <a xmlns:xlink="http://www.w3.org/1999/xlink"
       xlink:href="#Operand"
       xlink:title="Operand">
      <rect x="319" y="37" width="74" height="32"/>
      <rect x="317" y="35" width="74" height="32" class="nonterminal"/>
      <text class="nonterminal" x="327" y="55">Operand</text>
   </a>
   <a xmlns:xlink="http://www.w3.org/1999/xlink"
       xlink:href="#Command"
       xlink:title="Command">
      <rect x="319" y="103" width="84" height="32"/>
      <rect x="317" y="101" width="84" height="32" class="nonterminal"/>
      <text class="nonterminal" x="327" y="121">Command</text>
   </a>
   <path class="line"
          d="m17 51 h2 m0 0 h10 m106 0 h10 m20 0 h10 m0 0 h72 m-102 0 l20 0 m-1 0 q-9 0 -9 -10 l0 -14 q0 -10 10 -10 m82 34 l20 0 m-20 0 q10 0 10 -10 l0 -14 q0 -10 -10 -10 m-82 0 h10 m62 0 h10 m60 34 h10 m74 0 h10 m-114 0 l20 0 m-1 0 q-9 0 -9 -10 l0 -12 q0 -10 10 -10 m94 32 l20 0 m-20 0 q10 0 10 -10 l0 -12 q0 -10 -10 -10 m-94 0 h10 m0 0 h84 m20 32 h10 m-164 0 h20 m144 0 h20 m-184 0 q10 0 10 10 m164 0 q0 -10 10 -10 m-174 10 v46 m164 0 v-46 m-164 46 q0 10 10 10 m144 0 q10 0 10 -10 m-134 10 h10 m84 0 h10 m-124 0 l20 0 m-1 0 q-9 0 -9 -10 l0 -12 q0 -10 10 -10 m104 32 l20 0 m-20 0 q10 0 10 -10 l0 -12 q0 -10 -10 -10 m-104 0 h10 m0 0 h94 m-134 22 v20 m164 0 v-20 m-164 20 v14 m164 0 v-14 m-164 14 q0 10 10 10 m144 0 q10 0 10 -10 m-154 10 h10 m0 0 h134 m23 -100 h-3"/>
   <polygon points="461 51 469 47 469 55"/>
   <polygon points="461 51 453 47 453 55"/>
</svg>
