<?xml version="1.0" encoding="UTF-8"?>
<svg xmlns="http://www.w3.org/2000/svg" width="369" height="179">
   <defs>
      <style type="text/css">
    @namespace "http://www.w3.org/2000/svg";
    .line                 {fill: none; stroke: #332900; stroke-width: 1;}
    .bold-line            {stroke: #141000; shape-rendering: crispEdges; stroke-width: 2;}
    .thin-line            {stroke: #1F1800; shape-rendering: crispEdges}
    .filled               {fill: #332900; stroke: none;}
    text.terminal         {font-family: Verdana, Sans-serif;
                            font-size: 12px;
                            fill: #141000;
                            font-weight: bold;
                          }
    text.nonterminal      {font-family: Verdana, Sans-serif;
                            font-size: 12px;
                            fill: #1A1400;
                            font-weight: normal;
                          }
    text.regexp           {font-family: Verdana, Sans-serif;
                            font-size: 12px;
                            fill: #1F1800;
                            font-weight: normal;
                          }
    rect, circle, polygon {fill: #332900; stroke: #332900;}
    rect.terminal         {fill: #FFDB4D; stroke: #332900; stroke-width: 1;}
    rect.nonterminal      {fill: #FFEC9E; stroke: #332900; stroke-width: 1;}
    rect.text             {fill: none; stroke: none;}
    polygon.regexp        {fill: #FFF4C7; stroke: #332900; stroke-width: 1;}
  </style>
   </defs>
   <polygon points="9 51 1 47 1 55"/>
   <polygon points="17 51 9 47 9 55"/>
   <a xmlns:xlink="http://www.w3.org/1999/xlink"
       xlink:href="#Char"
       xlink:title="Char">
      <rect x="71" y="3" width="50" height="32"/>
      <rect x="69" y="1" width="50" height="32" class="nonterminal"/>
      <text class="nonterminal" x="79" y="21">Char</text>
   </a>
   <rect x="51" y="85" width="26" height="32" rx="10"/>
   <rect x="49"
          y="83"
          width="26"
          height="32"
          class="terminal"
          rx="10"/>
   <text class="terminal" x="59" y="103">"</text>
   <a xmlns:xlink="http://www.w3.org/1999/xlink"
       xlink:href="#Char"
       xlink:title="Char">
      <rect x="157" y="85" width="50" height="32"/>
      <rect x="155" y="83" width="50" height="32" class="nonterminal"/>
      <text class="nonterminal" x="165" y="103">Char</text>
   </a>
   <a xmlns:xlink="http://www.w3.org/1999/xlink"
       xlink:href="#Space"
       xlink:title="Space">
      <rect x="157" y="129" width="58" height="32"/>
      <rect x="155" y="127" width="58" height="32" class="nonterminal"/>
      <text class="nonterminal" x="165" y="147">Space</text>
   </a>
   <rect x="295" y="85" width="26" height="32" rx="10"/>
   <rect x="293"
          y="83"
          width="26"
          height="32"
          class="terminal"
          rx="10"/>
   <text class="terminal" x="303" y="103">"</text>
   <path class="line"
          d="m17 51 h2 m40 0 h10 m0 0 h60 m-90 0 l20 0 m-1 0 q-9 0 -9 -10 l0 -14 q0 -10 10 -10 m70 34 l20 0 m-20 0 q10 0 10 -10 l0 -14 q0 -10 -10 -10 m-70 0 h10 m50 0 h10 m20 34 h180 m-310 0 h20 m290 0 h20 m-330 0 q10 0 10 10 m310 0 q0 -10 10 -10 m-320 10 v28 m310 0 v-28 m-310 28 q0 10 10 10 m290 0 q10 0 10 -10 m-300 10 h10 m26 0 h10 m60 0 h10 m50 0 h10 m0 0 h8 m-98 0 h20 m78 0 h20 m-118 0 q10 0 10 10 m98 0 q0 -10 10 -10 m-108 10 v24 m98 0 v-24 m-98 24 q0 10 10 10 m78 0 q10 0 10 -10 m-88 10 h10 m58 0 h10 m-118 -44 l20 0 m-1 0 q-9 0 -9 -10 l0 -12 q0 -10 10 -10 m118 32 l20 0 m-20 0 q10 0 10 -10 l0 -12 q0 -10 -10 -10 m-118 0 h10 m0 0 h108 m-158 32 h20 m158 0 h20 m-198 0 q10 0 10 10 m178 0 q0 -10 10 -10 m-188 10 v58 m178 0 v-58 m-178 58 q0 10 10 10 m158 0 q10 0 10 -10 m-168 10 h10 m0 0 h148 m20 -78 h10 m26 0 h10 m23 -48 h-3"/>
   <polygon points="359 51 367 47 367 55"/>
   <polygon points="359 51 351 47 351 55"/>
</svg>
